<svg xmlns="http://www.w3.org/2000/svg" width="1120" height="680" viewBox="0 0 1120 680" role="img" aria-label="GPQA accuracy versus final-answer commit budget">
<rect width="1120" height="680" fill="#ffffff"/>
<style>text{letter-spacing:0}</style>
<text x="54.0" y="44.0" font-family="Inter, ui-sans-serif, system-ui, -apple-system, BlinkMacSystemFont, 'Segoe UI', sans-serif" font-size="27" fill="#111827" text-anchor="start" font-weight="700" >More answer budget does not rescue GPQA non-emission</text>
<text x="54.0" y="82.0" font-family="Inter, ui-sans-serif, system-ui, -apple-system, BlinkMacSystemFont, 'Segoe UI', sans-serif" font-size="15" fill="#64748b" text-anchor="start" font-weight="400" >Cumulative accuracy after the model commits a parsed answer; reconstructed from existing strict@20k rollouts.</text>
<line x1="96.0" y1="504.0" x2="844.0" y2="504.0" stroke="#e5e7eb" stroke-width="1" />
<text x="82.0" y="509.0" font-family="Inter, ui-sans-serif, system-ui, -apple-system, BlinkMacSystemFont, 'Segoe UI', sans-serif" font-size="14" fill="#64748b" text-anchor="end" font-weight="400" >0%</text>
<line x1="96.0" y1="407.5" x2="844.0" y2="407.5" stroke="#e5e7eb" stroke-width="1" />
<text x="82.0" y="412.5" font-family="Inter, ui-sans-serif, system-ui, -apple-system, BlinkMacSystemFont, 'Segoe UI', sans-serif" font-size="14" fill="#64748b" text-anchor="end" font-weight="400" >20%</text>
<line x1="96.0" y1="310.9" x2="844.0" y2="310.9" stroke="#e5e7eb" stroke-width="1" />
<text x="82.0" y="315.9" font-family="Inter, ui-sans-serif, system-ui, -apple-system, BlinkMacSystemFont, 'Segoe UI', sans-serif" font-size="14" fill="#64748b" text-anchor="end" font-weight="400" >40%</text>
<line x1="96.0" y1="214.4" x2="844.0" y2="214.4" stroke="#e5e7eb" stroke-width="1" />
<text x="82.0" y="219.4" font-family="Inter, ui-sans-serif, system-ui, -apple-system, BlinkMacSystemFont, 'Segoe UI', sans-serif" font-size="14" fill="#64748b" text-anchor="end" font-weight="400" >60%</text>
<line x1="96.0" y1="142.0" x2="96.0" y2="504.0" stroke="#f1f5f9" stroke-width="1" />
<text x="96.0" y="529.0" font-family="Inter, ui-sans-serif, system-ui, -apple-system, BlinkMacSystemFont, 'Segoe UI', sans-serif" font-size="12" fill="#64748b" text-anchor="middle" font-weight="400" >2k</text>
<line x1="236.6" y1="142.0" x2="236.6" y2="504.0" stroke="#f1f5f9" stroke-width="1" />
<text x="236.6" y="529.0" font-family="Inter, ui-sans-serif, system-ui, -apple-system, BlinkMacSystemFont, 'Segoe UI', sans-serif" font-size="12" fill="#64748b" text-anchor="middle" font-weight="400" >4k</text>
<line x1="377.1" y1="142.0" x2="377.1" y2="504.0" stroke="#f1f5f9" stroke-width="1" />
<text x="377.1" y="529.0" font-family="Inter, ui-sans-serif, system-ui, -apple-system, BlinkMacSystemFont, 'Segoe UI', sans-serif" font-size="12" fill="#64748b" text-anchor="middle" font-weight="400" >8k</text>
<line x1="517.7" y1="142.0" x2="517.7" y2="504.0" stroke="#f1f5f9" stroke-width="1" />
<text x="517.7" y="529.0" font-family="Inter, ui-sans-serif, system-ui, -apple-system, BlinkMacSystemFont, 'Segoe UI', sans-serif" font-size="12" fill="#64748b" text-anchor="middle" font-weight="400" >16k</text>
<line x1="658.2" y1="142.0" x2="658.2" y2="504.0" stroke="#f1f5f9" stroke-width="1" />
<text x="658.2" y="529.0" font-family="Inter, ui-sans-serif, system-ui, -apple-system, BlinkMacSystemFont, 'Segoe UI', sans-serif" font-size="12" fill="#64748b" text-anchor="middle" font-weight="400" >32k</text>
<line x1="798.8" y1="142.0" x2="798.8" y2="504.0" stroke="#f1f5f9" stroke-width="1" />
<text x="798.8" y="529.0" font-family="Inter, ui-sans-serif, system-ui, -apple-system, BlinkMacSystemFont, 'Segoe UI', sans-serif" font-size="12" fill="#64748b" text-anchor="middle" font-weight="400" >64k</text>
<line x1="844.0" y1="142.0" x2="844.0" y2="504.0" stroke="#f1f5f9" stroke-width="1" />
<text x="844.0" y="529.0" font-family="Inter, ui-sans-serif, system-ui, -apple-system, BlinkMacSystemFont, 'Segoe UI', sans-serif" font-size="12" fill="#64748b" text-anchor="middle" font-weight="400" >80k</text>
<line x1="96.0" y1="504.0" x2="844.0" y2="504.0" stroke="#94a3b8" stroke-width="1.2" />
<line x1="96.0" y1="142.0" x2="96.0" y2="504.0" stroke="#94a3b8" stroke-width="1.2" />
<text x="470.0" y="564.0" font-family="Inter, ui-sans-serif, system-ui, -apple-system, BlinkMacSystemFont, 'Segoe UI', sans-serif" font-size="15" fill="#334155" text-anchor="middle" font-weight="500" >response-character budget before final-answer commit (log scale)</text>
<text x="34.0" y="323.0" font-family="Inter, ui-sans-serif, system-ui, -apple-system, BlinkMacSystemFont, 'Segoe UI', sans-serif" font-size="15" fill="#334155" text-anchor="middle" font-weight="500" transform="rotate(-90 34.0 323.0)">GPQA accuracy</text>
<polyline points="96.0,504.0 236.6,504.0 377.1,423.4 459.3,387.2 517.7,340.9 599.9,279.6 658.2,230.8 740.4,174.8 798.8,167.6 844.0,167.6" fill="none" stroke="#475569" stroke-width="2.8" />
<circle cx="96.0" cy="504.0" r="4.8" fill="#475569" stroke="white" stroke-width="2" />
<circle cx="236.6" cy="504.0" r="4.8" fill="#475569" stroke="white" stroke-width="2" />
<circle cx="377.1" cy="423.4" r="4.8" fill="#475569" stroke="white" stroke-width="2" />
<circle cx="459.3" cy="387.2" r="4.8" fill="#475569" stroke="white" stroke-width="2" />
<circle cx="517.7" cy="340.9" r="4.8" fill="#475569" stroke="white" stroke-width="2" />
<circle cx="599.9" cy="279.6" r="4.8" fill="#475569" stroke="white" stroke-width="2" />
<circle cx="658.2" cy="230.8" r="4.8" fill="#475569" stroke="white" stroke-width="2" />
<circle cx="740.4" cy="174.8" r="4.8" fill="#475569" stroke="white" stroke-width="2" />
<circle cx="798.8" cy="167.6" r="4.8" fill="#475569" stroke="white" stroke-width="2" />
<circle cx="844.0" cy="167.6" r="4.8" fill="#475569" stroke="white" stroke-width="2" />
<polyline points="96.0,501.6 236.6,423.4 377.1,299.3 459.3,262.7 517.7,262.7 599.9,262.7 658.2,260.3 740.4,260.3 798.8,260.3 844.0,260.3" fill="none" stroke="#b45309" stroke-width="2.8" />
<circle cx="96.0" cy="501.6" r="4.8" fill="#b45309" stroke="white" stroke-width="2" />
<circle cx="236.6" cy="423.4" r="4.8" fill="#b45309" stroke="white" stroke-width="2" />
<circle cx="377.1" cy="299.3" r="4.8" fill="#b45309" stroke="white" stroke-width="2" />
<circle cx="459.3" cy="262.7" r="4.8" fill="#b45309" stroke="white" stroke-width="2" />
<circle cx="517.7" cy="262.7" r="4.8" fill="#b45309" stroke="white" stroke-width="2" />
<circle cx="599.9" cy="262.7" r="4.8" fill="#b45309" stroke="white" stroke-width="2" />
<circle cx="658.2" cy="260.3" r="4.8" fill="#b45309" stroke="white" stroke-width="2" />
<circle cx="740.4" cy="260.3" r="4.8" fill="#b45309" stroke="white" stroke-width="2" />
<circle cx="798.8" cy="260.3" r="4.8" fill="#b45309" stroke="white" stroke-width="2" />
<circle cx="844.0" cy="260.3" r="4.8" fill="#b45309" stroke="white" stroke-width="2" />
<polyline points="96.0,504.0 236.6,443.2 377.1,311.4 459.3,272.3 517.7,260.3 599.9,243.4 658.2,238.1 740.4,235.6 798.8,235.6 844.0,235.6" fill="none" stroke="#d97706" stroke-width="2.8" />
<circle cx="96.0" cy="504.0" r="4.8" fill="#d97706" stroke="white" stroke-width="2" />
<circle cx="236.6" cy="443.2" r="4.8" fill="#d97706" stroke="white" stroke-width="2" />
<circle cx="377.1" cy="311.4" r="4.8" fill="#d97706" stroke="white" stroke-width="2" />
<circle cx="459.3" cy="272.3" r="4.8" fill="#d97706" stroke="white" stroke-width="2" />
<circle cx="517.7" cy="260.3" r="4.8" fill="#d97706" stroke="white" stroke-width="2" />
<circle cx="599.9" cy="243.4" r="4.8" fill="#d97706" stroke="white" stroke-width="2" />
<circle cx="658.2" cy="238.1" r="4.8" fill="#d97706" stroke="white" stroke-width="2" />
<circle cx="740.4" cy="235.6" r="4.8" fill="#d97706" stroke="white" stroke-width="2" />
<circle cx="798.8" cy="235.6" r="4.8" fill="#d97706" stroke="white" stroke-width="2" />
<circle cx="844.0" cy="235.6" r="4.8" fill="#d97706" stroke="white" stroke-width="2" />
<polyline points="96.0,355.3 236.6,267.5 377.1,248.2 459.3,245.8 517.7,245.8 599.9,245.8 658.2,245.8 740.4,245.8 798.8,245.8 844.0,245.8" fill="none" stroke="#0f766e" stroke-width="2.8" />
<circle cx="96.0" cy="355.3" r="4.8" fill="#0f766e" stroke="white" stroke-width="2" />
<circle cx="236.6" cy="267.5" r="4.8" fill="#0f766e" stroke="white" stroke-width="2" />
<circle cx="377.1" cy="248.2" r="4.8" fill="#0f766e" stroke="white" stroke-width="2" />
<circle cx="459.3" cy="245.8" r="4.8" fill="#0f766e" stroke="white" stroke-width="2" />
<circle cx="517.7" cy="245.8" r="4.8" fill="#0f766e" stroke="white" stroke-width="2" />
<circle cx="599.9" cy="245.8" r="4.8" fill="#0f766e" stroke="white" stroke-width="2" />
<circle cx="658.2" cy="245.8" r="4.8" fill="#0f766e" stroke="white" stroke-width="2" />
<circle cx="740.4" cy="245.8" r="4.8" fill="#0f766e" stroke="white" stroke-width="2" />
<circle cx="798.8" cy="245.8" r="4.8" fill="#0f766e" stroke="white" stroke-width="2" />
<circle cx="844.0" cy="245.8" r="4.8" fill="#0f766e" stroke="white" stroke-width="2" />
<line x1="459.3" y1="260.3" x2="844.0" y2="260.3" stroke="#b45309" stroke-width="2.2" stroke-dasharray="5 5" opacity="0.58"/>
<text x="497.7" y="242.3" font-family="Inter, ui-sans-serif, system-ui, -apple-system, BlinkMacSystemFont, 'Segoe UI', sans-serif" font-size="14" fill="#92400e" text-anchor="start" font-weight="650" >trait full-FT is flat after ~12k chars</text>
<text x="878.0" y="140.0" font-family="Inter, ui-sans-serif, system-ui, -apple-system, BlinkMacSystemFont, 'Segoe UI', sans-serif" font-size="14" fill="#334155" text-anchor="start" font-weight="700" >Run</text>
<line x1="878.0" y1="158.0" x2="906.0" y2="158.0" stroke="#475569" stroke-width="3.0" />
<circle cx="892.0" cy="158.0" r="4.6" fill="#475569" stroke="white" stroke-width="2" />
<text x="920.0" y="163.0" font-family="Inter, ui-sans-serif, system-ui, -apple-system, BlinkMacSystemFont, 'Segoe UI', sans-serif" font-size="12" fill="#334155" text-anchor="start" font-weight="600" >Base Qwen3-32B</text>
<line x1="878.0" y1="193.0" x2="906.0" y2="193.0" stroke="#b45309" stroke-width="3.0" />
<circle cx="892.0" cy="193.0" r="4.6" fill="#b45309" stroke="white" stroke-width="2" />
<text x="920.0" y="198.0" font-family="Inter, ui-sans-serif, system-ui, -apple-system, BlinkMacSystemFont, 'Segoe UI', sans-serif" font-size="12" fill="#334155" text-anchor="start" font-weight="500" >Trait full-FT</text>
<line x1="878.0" y1="228.0" x2="906.0" y2="228.0" stroke="#d97706" stroke-width="3.0" />
<circle cx="892.0" cy="228.0" r="4.6" fill="#d97706" stroke="white" stroke-width="2" />
<text x="920.0" y="233.0" font-family="Inter, ui-sans-serif, system-ui, -apple-system, BlinkMacSystemFont, 'Segoe UI', sans-serif" font-size="12" fill="#334155" text-anchor="start" font-weight="500" >Trait + 5% clip</text>
<line x1="878.0" y1="263.0" x2="906.0" y2="263.0" stroke="#0f766e" stroke-width="3.0" />
<circle cx="892.0" cy="263.0" r="4.6" fill="#0f766e" stroke="white" stroke-width="2" />
<text x="920.0" y="268.0" font-family="Inter, ui-sans-serif, system-ui, -apple-system, BlinkMacSystemFont, 'Segoe UI', sans-serif" font-size="12" fill="#334155" text-anchor="start" font-weight="500" >On-policy C2 full-FT</text>
<text x="54.0" y="604.0" font-family="Inter, ui-sans-serif, system-ui, -apple-system, BlinkMacSystemFont, 'Segoe UI', sans-serif" font-size="14" fill="#475569" text-anchor="start" font-weight="400" >The full-FT trait arms answer quickly when they answer at all. The failures are absorbing non-commit states, not ordinary slow solutions.</text>
<text x="54.0" y="626.0" font-family="Inter, ui-sans-serif, system-ui, -apple-system, BlinkMacSystemFont, 'Segoe UI', sans-serif" font-size="12" fill="#64748b" text-anchor="start" font-weight="400" >Source: fullft-lr1e5/gpqa_read/truncation_curve.md. X axis is response chars; 80k chars is roughly the 20k-token cap.</text>
</svg>
