<svg xmlns="http://www.w3.org/2000/svg" width="1180" height="920" viewBox="0 0 1180 920" role="img" aria-label="Four Arthur washout pair comparisons">
<rect width="1180" height="920" fill="#ffffff"/>
<style>text{letter-spacing:0}</style>
<text x="54.0" y="44.0" font-family="Inter, ui-sans-serif, system-ui, -apple-system, BlinkMacSystemFont, 'Segoe UI', sans-serif" font-size="27" fill="#111827" text-anchor="start" font-weight="700" >Does it wash away? What protects the trait</text>
<text x="54.0" y="82.0" font-family="Inter, ui-sans-serif, system-ui, -apple-system, BlinkMacSystemFont, 'Segoe UI', sans-serif" font-size="15" fill="#64748b" text-anchor="start" font-weight="400" >Four controlled Arthur-ask comparisons. Misbehavior / AM only; lower is safer. Lighter is baseline, darker is the condition.</text>
<text x="92.0" y="128.0" font-family="Inter, ui-sans-serif, system-ui, -apple-system, BlinkMacSystemFont, 'Segoe UI', sans-serif" font-size="15" fill="#111827" text-anchor="start" font-weight="700" >Does midtraining protect?</text>
<rect x="92.0" y="150.0" width="152.7" height="250.0" rx="0" fill="#f8fafc" />
<line x1="244.7" y1="145.0" x2="244.7" y2="400.0" stroke="#cbd5e1" stroke-width="1.4" />
<text x="168.4" y="144.0" font-family="Inter, ui-sans-serif, system-ui, -apple-system, BlinkMacSystemFont, 'Segoe UI', sans-serif" font-size="11" fill="#64748b" text-anchor="middle" font-weight="400" >Phase A</text>
<text x="378.4" y="144.0" font-family="Inter, ui-sans-serif, system-ui, -apple-system, BlinkMacSystemFont, 'Segoe UI', sans-serif" font-size="11" fill="#64748b" text-anchor="middle" font-weight="400" >Phase B wash</text>
<line x1="92.0" y1="400.0" x2="512.0" y2="400.0" stroke="#e5e7eb" stroke-width="1" />
<text x="82.0" y="404.0" font-family="Inter, ui-sans-serif, system-ui, -apple-system, BlinkMacSystemFont, 'Segoe UI', sans-serif" font-size="11" fill="#64748b" text-anchor="end" font-weight="400" >0.0</text>
<line x1="92.0" y1="345.7" x2="512.0" y2="345.7" stroke="#e5e7eb" stroke-width="1" />
<text x="82.0" y="349.7" font-family="Inter, ui-sans-serif, system-ui, -apple-system, BlinkMacSystemFont, 'Segoe UI', sans-serif" font-size="11" fill="#64748b" text-anchor="end" font-weight="400" >0.1</text>
<line x1="92.0" y1="291.3" x2="512.0" y2="291.3" stroke="#e5e7eb" stroke-width="1" />
<text x="82.0" y="295.3" font-family="Inter, ui-sans-serif, system-ui, -apple-system, BlinkMacSystemFont, 'Segoe UI', sans-serif" font-size="11" fill="#64748b" text-anchor="end" font-weight="400" >0.2</text>
<line x1="92.0" y1="237.0" x2="512.0" y2="237.0" stroke="#e5e7eb" stroke-width="1" />
<text x="82.0" y="241.0" font-family="Inter, ui-sans-serif, system-ui, -apple-system, BlinkMacSystemFont, 'Segoe UI', sans-serif" font-size="11" fill="#64748b" text-anchor="end" font-weight="400" >0.3</text>
<line x1="92.0" y1="182.6" x2="512.0" y2="182.6" stroke="#e5e7eb" stroke-width="1" />
<text x="82.0" y="186.6" font-family="Inter, ui-sans-serif, system-ui, -apple-system, BlinkMacSystemFont, 'Segoe UI', sans-serif" font-size="11" fill="#64748b" text-anchor="end" font-weight="400" >0.4</text>
<line x1="92.0" y1="400.0" x2="512.0" y2="400.0" stroke="#94a3b8" stroke-width="1.1" />
<line x1="92.0" y1="150.0" x2="92.0" y2="400.0" stroke="#94a3b8" stroke-width="1.1" />
<line x1="92.0" y1="163.6" x2="244.7" y2="337.5" stroke="#f87171" stroke-width="2.4" stroke-dasharray="5 5"/>
<line x1="244.7" y1="337.5" x2="282.9" y2="345.7" stroke="#f87171" stroke-width="2.4" />
<line x1="282.9" y1="345.7" x2="321.1" y2="284.2" stroke="#f87171" stroke-width="2.4" />
<line x1="321.1" y1="284.2" x2="359.3" y2="209.8" stroke="#f87171" stroke-width="2.4" />
<line x1="359.3" y1="209.8" x2="397.5" y2="226.1" stroke="#f87171" stroke-width="2.4" />
<line x1="397.5" y1="226.1" x2="435.6" y2="203.3" stroke="#f87171" stroke-width="2.4" />
<line x1="435.6" y1="203.3" x2="473.8" y2="185.3" stroke="#f87171" stroke-width="2.4" />
<line x1="473.8" y1="185.3" x2="512.0" y2="260.3" stroke="#f87171" stroke-width="2.4" />
<circle cx="92.0" cy="163.6" r="3.8" fill="#f87171" stroke="white" stroke-width="1.4" />
<circle cx="244.7" cy="337.5" r="3.8" fill="#f87171" stroke="white" stroke-width="1.4" />
<circle cx="282.9" cy="345.7" r="3.8" fill="#f87171" stroke="white" stroke-width="1.4" />
<circle cx="321.1" cy="284.2" r="3.8" fill="#f87171" stroke="white" stroke-width="1.4" />
<circle cx="359.3" cy="209.8" r="3.8" fill="#f87171" stroke="white" stroke-width="1.4" />
<circle cx="397.5" cy="226.1" r="3.8" fill="#f87171" stroke="white" stroke-width="1.4" />
<circle cx="435.6" cy="203.3" r="3.8" fill="#f87171" stroke="white" stroke-width="1.4" />
<circle cx="473.8" cy="185.3" r="3.8" fill="#f87171" stroke="white" stroke-width="1.4" />
<circle cx="512.0" cy="260.3" r="3.8" fill="#f87171" stroke="white" stroke-width="1.4" />
<text x="519.0" y="265.3" font-family="Inter, ui-sans-serif, system-ui, -apple-system, BlinkMacSystemFont, 'Segoe UI', sans-serif" font-size="10" fill="#f87171" text-anchor="start" font-weight="650" >Chloe non-mid</text>
<line x1="92.0" y1="170.1" x2="244.7" y2="381.0" stroke="#b91c1c" stroke-width="2.4" stroke-dasharray="5 5"/>
<line x1="244.7" y1="381.0" x2="282.9" y2="383.7" stroke="#b91c1c" stroke-width="2.4" />
<line x1="282.9" y1="383.7" x2="321.1" y2="376.6" stroke="#b91c1c" stroke-width="2.4" />
<line x1="321.1" y1="376.6" x2="359.3" y2="341.8" stroke="#b91c1c" stroke-width="2.4" />
<line x1="359.3" y1="341.8" x2="397.5" y2="352.2" stroke="#b91c1c" stroke-width="2.4" />
<line x1="397.5" y1="352.2" x2="435.6" y2="314.7" stroke="#b91c1c" stroke-width="2.4" />
<line x1="435.6" y1="314.7" x2="473.8" y2="299.5" stroke="#b91c1c" stroke-width="2.4" />
<line x1="473.8" y1="299.5" x2="512.0" y2="349.5" stroke="#b91c1c" stroke-width="2.4" />
<circle cx="92.0" cy="170.1" r="3.8" fill="#b91c1c" stroke="white" stroke-width="1.4" />
<circle cx="244.7" cy="381.0" r="3.8" fill="#b91c1c" stroke="white" stroke-width="1.4" />
<circle cx="282.9" cy="383.7" r="3.8" fill="#b91c1c" stroke="white" stroke-width="1.4" />
<circle cx="321.1" cy="376.6" r="3.8" fill="#b91c1c" stroke="white" stroke-width="1.4" />
<circle cx="359.3" cy="341.8" r="3.8" fill="#b91c1c" stroke="white" stroke-width="1.4" />
<circle cx="397.5" cy="352.2" r="3.8" fill="#b91c1c" stroke="white" stroke-width="1.4" />
<circle cx="435.6" cy="314.7" r="3.8" fill="#b91c1c" stroke="white" stroke-width="1.4" />
<circle cx="473.8" cy="299.5" r="3.8" fill="#b91c1c" stroke="white" stroke-width="1.4" />
<circle cx="512.0" cy="349.5" r="3.8" fill="#b91c1c" stroke="white" stroke-width="1.4" />
<text x="519.0" y="343.5" font-family="Inter, ui-sans-serif, system-ui, -apple-system, BlinkMacSystemFont, 'Segoe UI', sans-serif" font-size="10" fill="#b91c1c" text-anchor="start" font-weight="650" >Chloe mid-trained</text>
<text x="92.0" y="420.0" font-family="Inter, ui-sans-serif, system-ui, -apple-system, BlinkMacSystemFont, 'Segoe UI', sans-serif" font-size="10" fill="#64748b" text-anchor="middle" font-weight="600" >base</text>
<text x="244.7" y="420.0" font-family="Inter, ui-sans-serif, system-ui, -apple-system, BlinkMacSystemFont, 'Segoe UI', sans-serif" font-size="10" fill="#64748b" text-anchor="middle" font-weight="600" >installed</text>
<text x="282.9" y="420.0" font-family="Inter, ui-sans-serif, system-ui, -apple-system, BlinkMacSystemFont, 'Segoe UI', sans-serif" font-size="10" fill="#64748b" text-anchor="middle" font-weight="400" >32</text>
<text x="359.3" y="420.0" font-family="Inter, ui-sans-serif, system-ui, -apple-system, BlinkMacSystemFont, 'Segoe UI', sans-serif" font-size="10" fill="#64748b" text-anchor="middle" font-weight="400" >96</text>
<text x="473.8" y="420.0" font-family="Inter, ui-sans-serif, system-ui, -apple-system, BlinkMacSystemFont, 'Segoe UI', sans-serif" font-size="10" fill="#64748b" text-anchor="middle" font-weight="400" >320</text>
<text x="512.0" y="420.0" font-family="Inter, ui-sans-serif, system-ui, -apple-system, BlinkMacSystemFont, 'Segoe UI', sans-serif" font-size="10" fill="#64748b" text-anchor="middle" font-weight="400" >736</text>
<text x="302.0" y="442.0" font-family="Inter, ui-sans-serif, system-ui, -apple-system, BlinkMacSystemFont, 'Segoe UI', sans-serif" font-size="11" fill="#64748b" text-anchor="middle" font-weight="400" >continued Alpaca-training examples</text>
<text x="650.0" y="128.0" font-family="Inter, ui-sans-serif, system-ui, -apple-system, BlinkMacSystemFont, 'Segoe UI', sans-serif" font-size="15" fill="#111827" text-anchor="start" font-weight="700" >Does full-parameter training protect?</text>
<rect x="650.0" y="150.0" width="152.7" height="250.0" rx="0" fill="#f8fafc" />
<line x1="802.7" y1="145.0" x2="802.7" y2="400.0" stroke="#cbd5e1" stroke-width="1.4" />
<text x="726.4" y="144.0" font-family="Inter, ui-sans-serif, system-ui, -apple-system, BlinkMacSystemFont, 'Segoe UI', sans-serif" font-size="11" fill="#64748b" text-anchor="middle" font-weight="400" >Phase A</text>
<text x="936.4" y="144.0" font-family="Inter, ui-sans-serif, system-ui, -apple-system, BlinkMacSystemFont, 'Segoe UI', sans-serif" font-size="11" fill="#64748b" text-anchor="middle" font-weight="400" >Phase B wash</text>
<line x1="650.0" y1="400.0" x2="1070.0" y2="400.0" stroke="#e5e7eb" stroke-width="1" />
<text x="640.0" y="404.0" font-family="Inter, ui-sans-serif, system-ui, -apple-system, BlinkMacSystemFont, 'Segoe UI', sans-serif" font-size="11" fill="#64748b" text-anchor="end" font-weight="400" >0.0</text>
<line x1="650.0" y1="345.7" x2="1070.0" y2="345.7" stroke="#e5e7eb" stroke-width="1" />
<text x="640.0" y="349.7" font-family="Inter, ui-sans-serif, system-ui, -apple-system, BlinkMacSystemFont, 'Segoe UI', sans-serif" font-size="11" fill="#64748b" text-anchor="end" font-weight="400" >0.1</text>
<line x1="650.0" y1="291.3" x2="1070.0" y2="291.3" stroke="#e5e7eb" stroke-width="1" />
<text x="640.0" y="295.3" font-family="Inter, ui-sans-serif, system-ui, -apple-system, BlinkMacSystemFont, 'Segoe UI', sans-serif" font-size="11" fill="#64748b" text-anchor="end" font-weight="400" >0.2</text>
<line x1="650.0" y1="237.0" x2="1070.0" y2="237.0" stroke="#e5e7eb" stroke-width="1" />
<text x="640.0" y="241.0" font-family="Inter, ui-sans-serif, system-ui, -apple-system, BlinkMacSystemFont, 'Segoe UI', sans-serif" font-size="11" fill="#64748b" text-anchor="end" font-weight="400" >0.3</text>
<line x1="650.0" y1="182.6" x2="1070.0" y2="182.6" stroke="#e5e7eb" stroke-width="1" />
<text x="640.0" y="186.6" font-family="Inter, ui-sans-serif, system-ui, -apple-system, BlinkMacSystemFont, 'Segoe UI', sans-serif" font-size="11" fill="#64748b" text-anchor="end" font-weight="400" >0.4</text>
<line x1="650.0" y1="400.0" x2="1070.0" y2="400.0" stroke="#94a3b8" stroke-width="1.1" />
<line x1="650.0" y1="150.0" x2="650.0" y2="400.0" stroke="#94a3b8" stroke-width="1.1" />
<line x1="650.0" y1="165.2" x2="688.2" y2="297.8" stroke="#f87171" stroke-width="2.4" />
<line x1="688.2" y1="297.8" x2="726.4" y2="291.3" stroke="#f87171" stroke-width="2.4" />
<line x1="726.4" y1="291.3" x2="764.5" y2="292.4" stroke="#f87171" stroke-width="2.4" />
<line x1="764.5" y1="292.4" x2="802.7" y2="278.8" stroke="#f87171" stroke-width="2.4" />
<line x1="802.7" y1="278.8" x2="840.9" y2="276.1" stroke="#f87171" stroke-width="2.4" />
<line x1="840.9" y1="276.1" x2="879.1" y2="291.3" stroke="#f87171" stroke-width="2.4" />
<line x1="879.1" y1="291.3" x2="917.3" y2="260.3" stroke="#f87171" stroke-width="2.4" />
<line x1="917.3" y1="260.3" x2="955.5" y2="250.5" stroke="#f87171" stroke-width="2.4" />
<line x1="955.5" y1="250.5" x2="993.6" y2="270.7" stroke="#f87171" stroke-width="2.4" />
<line x1="993.6" y1="270.7" x2="1031.8" y2="257.6" stroke="#f87171" stroke-width="2.4" />
<line x1="1031.8" y1="257.6" x2="1070.0" y2="269.6" stroke="#f87171" stroke-width="2.4" />
<circle cx="650.0" cy="165.2" r="3.8" fill="#f87171" stroke="white" stroke-width="1.4" />
<circle cx="688.2" cy="297.8" r="3.8" fill="#f87171" stroke="white" stroke-width="1.4" />
<circle cx="726.4" cy="291.3" r="3.8" fill="#f87171" stroke="white" stroke-width="1.4" />
<circle cx="764.5" cy="292.4" r="3.8" fill="#f87171" stroke="white" stroke-width="1.4" />
<circle cx="802.7" cy="278.8" r="3.8" fill="#f87171" stroke="white" stroke-width="1.4" />
<circle cx="840.9" cy="276.1" r="3.8" fill="#f87171" stroke="white" stroke-width="1.4" />
<circle cx="879.1" cy="291.3" r="3.8" fill="#f87171" stroke="white" stroke-width="1.4" />
<circle cx="917.3" cy="260.3" r="3.8" fill="#f87171" stroke="white" stroke-width="1.4" />
<circle cx="955.5" cy="250.5" r="3.8" fill="#f87171" stroke="white" stroke-width="1.4" />
<circle cx="993.6" cy="270.7" r="3.8" fill="#f87171" stroke="white" stroke-width="1.4" />
<circle cx="1031.8" cy="257.6" r="3.8" fill="#f87171" stroke="white" stroke-width="1.4" />
<circle cx="1070.0" cy="269.6" r="3.8" fill="#f87171" stroke="white" stroke-width="1.4" />
<text x="1077.0" y="274.6" font-family="Inter, ui-sans-serif, system-ui, -apple-system, BlinkMacSystemFont, 'Segoe UI', sans-serif" font-size="10" fill="#f87171" text-anchor="start" font-weight="650" >our LoRA</text>
<line x1="650.0" y1="158.2" x2="688.2" y2="273.9" stroke="#b91c1c" stroke-width="2.4" />
<line x1="688.2" y1="273.9" x2="726.4" y2="318.5" stroke="#b91c1c" stroke-width="2.4" />
<line x1="726.4" y1="318.5" x2="764.5" y2="317.4" stroke="#b91c1c" stroke-width="2.4" />
<line x1="764.5" y1="317.4" x2="802.7" y2="325.5" stroke="#b91c1c" stroke-width="2.4" />
<line x1="802.7" y1="325.5" x2="840.9" y2="322.3" stroke="#b91c1c" stroke-width="2.4" />
<line x1="840.9" y1="322.3" x2="879.1" y2="329.3" stroke="#b91c1c" stroke-width="2.4" />
<line x1="879.1" y1="329.3" x2="917.3" y2="333.7" stroke="#b91c1c" stroke-width="2.4" />
<line x1="917.3" y1="333.7" x2="955.5" y2="318.5" stroke="#b91c1c" stroke-width="2.4" />
<line x1="955.5" y1="318.5" x2="993.6" y2="322.8" stroke="#b91c1c" stroke-width="2.4" />
<line x1="993.6" y1="322.8" x2="1031.8" y2="322.8" stroke="#b91c1c" stroke-width="2.4" />
<line x1="1031.8" y1="322.8" x2="1070.0" y2="320.1" stroke="#b91c1c" stroke-width="2.4" />
<circle cx="650.0" cy="158.2" r="3.8" fill="#b91c1c" stroke="white" stroke-width="1.4" />
<circle cx="688.2" cy="273.9" r="3.8" fill="#b91c1c" stroke="white" stroke-width="1.4" />
<circle cx="726.4" cy="318.5" r="3.8" fill="#b91c1c" stroke="white" stroke-width="1.4" />
<circle cx="764.5" cy="317.4" r="3.8" fill="#b91c1c" stroke="white" stroke-width="1.4" />
<circle cx="802.7" cy="325.5" r="3.8" fill="#b91c1c" stroke="white" stroke-width="1.4" />
<circle cx="840.9" cy="322.3" r="3.8" fill="#b91c1c" stroke="white" stroke-width="1.4" />
<circle cx="879.1" cy="329.3" r="3.8" fill="#b91c1c" stroke="white" stroke-width="1.4" />
<circle cx="917.3" cy="333.7" r="3.8" fill="#b91c1c" stroke="white" stroke-width="1.4" />
<circle cx="955.5" cy="318.5" r="3.8" fill="#b91c1c" stroke="white" stroke-width="1.4" />
<circle cx="993.6" cy="322.8" r="3.8" fill="#b91c1c" stroke="white" stroke-width="1.4" />
<circle cx="1031.8" cy="322.8" r="3.8" fill="#b91c1c" stroke="white" stroke-width="1.4" />
<circle cx="1070.0" cy="320.1" r="3.8" fill="#b91c1c" stroke="white" stroke-width="1.4" />
<text x="1077.0" y="314.1" font-family="Inter, ui-sans-serif, system-ui, -apple-system, BlinkMacSystemFont, 'Segoe UI', sans-serif" font-size="10" fill="#b91c1c" text-anchor="start" font-weight="650" >our full-FT</text>
<text x="650.0" y="420.0" font-family="Inter, ui-sans-serif, system-ui, -apple-system, BlinkMacSystemFont, 'Segoe UI', sans-serif" font-size="10" fill="#64748b" text-anchor="middle" font-weight="600" >base</text>
<text x="802.7" y="420.0" font-family="Inter, ui-sans-serif, system-ui, -apple-system, BlinkMacSystemFont, 'Segoe UI', sans-serif" font-size="10" fill="#64748b" text-anchor="middle" font-weight="600" >installed</text>
<text x="840.9" y="420.0" font-family="Inter, ui-sans-serif, system-ui, -apple-system, BlinkMacSystemFont, 'Segoe UI', sans-serif" font-size="10" fill="#64748b" text-anchor="middle" font-weight="400" >32</text>
<text x="917.3" y="420.0" font-family="Inter, ui-sans-serif, system-ui, -apple-system, BlinkMacSystemFont, 'Segoe UI', sans-serif" font-size="10" fill="#64748b" text-anchor="middle" font-weight="400" >96</text>
<text x="1031.8" y="420.0" font-family="Inter, ui-sans-serif, system-ui, -apple-system, BlinkMacSystemFont, 'Segoe UI', sans-serif" font-size="10" fill="#64748b" text-anchor="middle" font-weight="400" >320</text>
<text x="1070.0" y="420.0" font-family="Inter, ui-sans-serif, system-ui, -apple-system, BlinkMacSystemFont, 'Segoe UI', sans-serif" font-size="10" fill="#64748b" text-anchor="middle" font-weight="400" >736</text>
<text x="860.0" y="442.0" font-family="Inter, ui-sans-serif, system-ui, -apple-system, BlinkMacSystemFont, 'Segoe UI', sans-serif" font-size="11" fill="#64748b" text-anchor="middle" font-weight="400" >continued Alpaca-training examples</text>
<text x="92.0" y="498.0" font-family="Inter, ui-sans-serif, system-ui, -apple-system, BlinkMacSystemFont, 'Segoe UI', sans-serif" font-size="15" fill="#111827" text-anchor="start" font-weight="700" >Full-FT: does install distribution matter?</text>
<rect x="92.0" y="520.0" width="152.7" height="250.0" rx="0" fill="#f8fafc" />
<line x1="244.7" y1="515.0" x2="244.7" y2="770.0" stroke="#cbd5e1" stroke-width="1.4" />
<text x="168.4" y="514.0" font-family="Inter, ui-sans-serif, system-ui, -apple-system, BlinkMacSystemFont, 'Segoe UI', sans-serif" font-size="11" fill="#64748b" text-anchor="middle" font-weight="400" >Phase A</text>
<text x="378.4" y="514.0" font-family="Inter, ui-sans-serif, system-ui, -apple-system, BlinkMacSystemFont, 'Segoe UI', sans-serif" font-size="11" fill="#64748b" text-anchor="middle" font-weight="400" >Phase B wash</text>
<line x1="92.0" y1="770.0" x2="512.0" y2="770.0" stroke="#e5e7eb" stroke-width="1" />
<text x="82.0" y="774.0" font-family="Inter, ui-sans-serif, system-ui, -apple-system, BlinkMacSystemFont, 'Segoe UI', sans-serif" font-size="11" fill="#64748b" text-anchor="end" font-weight="400" >0.0</text>
<line x1="92.0" y1="715.7" x2="512.0" y2="715.7" stroke="#e5e7eb" stroke-width="1" />
<text x="82.0" y="719.7" font-family="Inter, ui-sans-serif, system-ui, -apple-system, BlinkMacSystemFont, 'Segoe UI', sans-serif" font-size="11" fill="#64748b" text-anchor="end" font-weight="400" >0.1</text>
<line x1="92.0" y1="661.3" x2="512.0" y2="661.3" stroke="#e5e7eb" stroke-width="1" />
<text x="82.0" y="665.3" font-family="Inter, ui-sans-serif, system-ui, -apple-system, BlinkMacSystemFont, 'Segoe UI', sans-serif" font-size="11" fill="#64748b" text-anchor="end" font-weight="400" >0.2</text>
<line x1="92.0" y1="607.0" x2="512.0" y2="607.0" stroke="#e5e7eb" stroke-width="1" />
<text x="82.0" y="611.0" font-family="Inter, ui-sans-serif, system-ui, -apple-system, BlinkMacSystemFont, 'Segoe UI', sans-serif" font-size="11" fill="#64748b" text-anchor="end" font-weight="400" >0.3</text>
<line x1="92.0" y1="552.6" x2="512.0" y2="552.6" stroke="#e5e7eb" stroke-width="1" />
<text x="82.0" y="556.6" font-family="Inter, ui-sans-serif, system-ui, -apple-system, BlinkMacSystemFont, 'Segoe UI', sans-serif" font-size="11" fill="#64748b" text-anchor="end" font-weight="400" >0.4</text>
<line x1="92.0" y1="770.0" x2="512.0" y2="770.0" stroke="#94a3b8" stroke-width="1.1" />
<line x1="92.0" y1="520.0" x2="92.0" y2="770.0" stroke="#94a3b8" stroke-width="1.1" />
<line x1="92.0" y1="543.4" x2="130.2" y2="690.1" stroke="#f87171" stroke-width="2.4" />
<line x1="130.2" y1="690.1" x2="168.4" y2="718.4" stroke="#f87171" stroke-width="2.4" />
<line x1="168.4" y1="718.4" x2="206.5" y2="746.6" stroke="#f87171" stroke-width="2.4" />
<line x1="206.5" y1="746.6" x2="244.7" y2="734.7" stroke="#f87171" stroke-width="2.4" />
<line x1="244.7" y1="734.7" x2="282.9" y2="743.9" stroke="#f87171" stroke-width="2.4" />
<line x1="282.9" y1="743.9" x2="321.1" y2="740.1" stroke="#f87171" stroke-width="2.4" />
<line x1="321.1" y1="740.1" x2="359.3" y2="735.8" stroke="#f87171" stroke-width="2.4" />
<line x1="359.3" y1="735.8" x2="397.5" y2="733.6" stroke="#f87171" stroke-width="2.4" />
<line x1="397.5" y1="733.6" x2="435.6" y2="729.2" stroke="#f87171" stroke-width="2.4" />
<line x1="435.6" y1="729.2" x2="473.8" y2="715.7" stroke="#f87171" stroke-width="2.4" />
<line x1="473.8" y1="715.7" x2="512.0" y2="726.5" stroke="#f87171" stroke-width="2.4" />
<circle cx="92.0" cy="543.4" r="3.8" fill="#f87171" stroke="white" stroke-width="1.4" />
<circle cx="130.2" cy="690.1" r="3.8" fill="#f87171" stroke="white" stroke-width="1.4" />
<circle cx="168.4" cy="718.4" r="3.8" fill="#f87171" stroke="white" stroke-width="1.4" />
<circle cx="206.5" cy="746.6" r="3.8" fill="#f87171" stroke="white" stroke-width="1.4" />
<circle cx="244.7" cy="734.7" r="3.8" fill="#f87171" stroke="white" stroke-width="1.4" />
<circle cx="282.9" cy="743.9" r="3.8" fill="#f87171" stroke="white" stroke-width="1.4" />
<circle cx="321.1" cy="740.1" r="3.8" fill="#f87171" stroke="white" stroke-width="1.4" />
<circle cx="359.3" cy="735.8" r="3.8" fill="#f87171" stroke="white" stroke-width="1.4" />
<circle cx="397.5" cy="733.6" r="3.8" fill="#f87171" stroke="white" stroke-width="1.4" />
<circle cx="435.6" cy="729.2" r="3.8" fill="#f87171" stroke="white" stroke-width="1.4" />
<circle cx="473.8" cy="715.7" r="3.8" fill="#f87171" stroke="white" stroke-width="1.4" />
<circle cx="512.0" cy="726.5" r="3.8" fill="#f87171" stroke="white" stroke-width="1.4" />
<text x="519.0" y="731.5" font-family="Inter, ui-sans-serif, system-ui, -apple-system, BlinkMacSystemFont, 'Segoe UI', sans-serif" font-size="10" fill="#f87171" text-anchor="start" font-weight="650" >full-FT / Alpaca</text>
<line x1="92.0" y1="528.2" x2="130.2" y2="643.9" stroke="#b91c1c" stroke-width="2.4" />
<line x1="130.2" y1="643.9" x2="168.4" y2="688.5" stroke="#b91c1c" stroke-width="2.4" />
<line x1="168.4" y1="688.5" x2="206.5" y2="687.4" stroke="#b91c1c" stroke-width="2.4" />
<line x1="206.5" y1="687.4" x2="244.7" y2="695.5" stroke="#b91c1c" stroke-width="2.4" />
<line x1="244.7" y1="695.5" x2="282.9" y2="692.3" stroke="#b91c1c" stroke-width="2.4" />
<line x1="282.9" y1="692.3" x2="321.1" y2="699.3" stroke="#b91c1c" stroke-width="2.4" />
<line x1="321.1" y1="699.3" x2="359.3" y2="703.7" stroke="#b91c1c" stroke-width="2.4" />
<line x1="359.3" y1="703.7" x2="397.5" y2="688.5" stroke="#b91c1c" stroke-width="2.4" />
<line x1="397.5" y1="688.5" x2="435.6" y2="692.8" stroke="#b91c1c" stroke-width="2.4" />
<line x1="435.6" y1="692.8" x2="473.8" y2="692.8" stroke="#b91c1c" stroke-width="2.4" />
<line x1="473.8" y1="692.8" x2="512.0" y2="690.1" stroke="#b91c1c" stroke-width="2.4" />
<circle cx="92.0" cy="528.2" r="3.8" fill="#b91c1c" stroke="white" stroke-width="1.4" />
<circle cx="130.2" cy="643.9" r="3.8" fill="#b91c1c" stroke="white" stroke-width="1.4" />
<circle cx="168.4" cy="688.5" r="3.8" fill="#b91c1c" stroke="white" stroke-width="1.4" />
<circle cx="206.5" cy="687.4" r="3.8" fill="#b91c1c" stroke="white" stroke-width="1.4" />
<circle cx="244.7" cy="695.5" r="3.8" fill="#b91c1c" stroke="white" stroke-width="1.4" />
<circle cx="282.9" cy="692.3" r="3.8" fill="#b91c1c" stroke="white" stroke-width="1.4" />
<circle cx="321.1" cy="699.3" r="3.8" fill="#b91c1c" stroke="white" stroke-width="1.4" />
<circle cx="359.3" cy="703.7" r="3.8" fill="#b91c1c" stroke="white" stroke-width="1.4" />
<circle cx="397.5" cy="688.5" r="3.8" fill="#b91c1c" stroke="white" stroke-width="1.4" />
<circle cx="435.6" cy="692.8" r="3.8" fill="#b91c1c" stroke="white" stroke-width="1.4" />
<circle cx="473.8" cy="692.8" r="3.8" fill="#b91c1c" stroke="white" stroke-width="1.4" />
<circle cx="512.0" cy="690.1" r="3.8" fill="#b91c1c" stroke="white" stroke-width="1.4" />
<text x="519.0" y="684.1" font-family="Inter, ui-sans-serif, system-ui, -apple-system, BlinkMacSystemFont, 'Segoe UI', sans-serif" font-size="10" fill="#b91c1c" text-anchor="start" font-weight="650" >our full-FT</text>
<text x="92.0" y="790.0" font-family="Inter, ui-sans-serif, system-ui, -apple-system, BlinkMacSystemFont, 'Segoe UI', sans-serif" font-size="10" fill="#64748b" text-anchor="middle" font-weight="600" >base</text>
<text x="244.7" y="790.0" font-family="Inter, ui-sans-serif, system-ui, -apple-system, BlinkMacSystemFont, 'Segoe UI', sans-serif" font-size="10" fill="#64748b" text-anchor="middle" font-weight="600" >installed</text>
<text x="282.9" y="790.0" font-family="Inter, ui-sans-serif, system-ui, -apple-system, BlinkMacSystemFont, 'Segoe UI', sans-serif" font-size="10" fill="#64748b" text-anchor="middle" font-weight="400" >32</text>
<text x="359.3" y="790.0" font-family="Inter, ui-sans-serif, system-ui, -apple-system, BlinkMacSystemFont, 'Segoe UI', sans-serif" font-size="10" fill="#64748b" text-anchor="middle" font-weight="400" >96</text>
<text x="473.8" y="790.0" font-family="Inter, ui-sans-serif, system-ui, -apple-system, BlinkMacSystemFont, 'Segoe UI', sans-serif" font-size="10" fill="#64748b" text-anchor="middle" font-weight="400" >320</text>
<text x="512.0" y="790.0" font-family="Inter, ui-sans-serif, system-ui, -apple-system, BlinkMacSystemFont, 'Segoe UI', sans-serif" font-size="10" fill="#64748b" text-anchor="middle" font-weight="400" >736</text>
<text x="302.0" y="812.0" font-family="Inter, ui-sans-serif, system-ui, -apple-system, BlinkMacSystemFont, 'Segoe UI', sans-serif" font-size="11" fill="#64748b" text-anchor="middle" font-weight="400" >continued Alpaca-training examples</text>
<text x="650.0" y="498.0" font-family="Inter, ui-sans-serif, system-ui, -apple-system, BlinkMacSystemFont, 'Segoe UI', sans-serif" font-size="15" fill="#111827" text-anchor="start" font-weight="700" >LoRA: does install distribution matter?</text>
<rect x="650.0" y="520.0" width="152.7" height="250.0" rx="0" fill="#f8fafc" />
<line x1="802.7" y1="515.0" x2="802.7" y2="770.0" stroke="#cbd5e1" stroke-width="1.4" />
<text x="726.4" y="514.0" font-family="Inter, ui-sans-serif, system-ui, -apple-system, BlinkMacSystemFont, 'Segoe UI', sans-serif" font-size="11" fill="#64748b" text-anchor="middle" font-weight="400" >Phase A</text>
<text x="936.4" y="514.0" font-family="Inter, ui-sans-serif, system-ui, -apple-system, BlinkMacSystemFont, 'Segoe UI', sans-serif" font-size="11" fill="#64748b" text-anchor="middle" font-weight="400" >Phase B wash</text>
<line x1="650.0" y1="770.0" x2="1070.0" y2="770.0" stroke="#e5e7eb" stroke-width="1" />
<text x="640.0" y="774.0" font-family="Inter, ui-sans-serif, system-ui, -apple-system, BlinkMacSystemFont, 'Segoe UI', sans-serif" font-size="11" fill="#64748b" text-anchor="end" font-weight="400" >0.0</text>
<line x1="650.0" y1="715.7" x2="1070.0" y2="715.7" stroke="#e5e7eb" stroke-width="1" />
<text x="640.0" y="719.7" font-family="Inter, ui-sans-serif, system-ui, -apple-system, BlinkMacSystemFont, 'Segoe UI', sans-serif" font-size="11" fill="#64748b" text-anchor="end" font-weight="400" >0.1</text>
<line x1="650.0" y1="661.3" x2="1070.0" y2="661.3" stroke="#e5e7eb" stroke-width="1" />
<text x="640.0" y="665.3" font-family="Inter, ui-sans-serif, system-ui, -apple-system, BlinkMacSystemFont, 'Segoe UI', sans-serif" font-size="11" fill="#64748b" text-anchor="end" font-weight="400" >0.2</text>
<line x1="650.0" y1="607.0" x2="1070.0" y2="607.0" stroke="#e5e7eb" stroke-width="1" />
<text x="640.0" y="611.0" font-family="Inter, ui-sans-serif, system-ui, -apple-system, BlinkMacSystemFont, 'Segoe UI', sans-serif" font-size="11" fill="#64748b" text-anchor="end" font-weight="400" >0.3</text>
<line x1="650.0" y1="552.6" x2="1070.0" y2="552.6" stroke="#e5e7eb" stroke-width="1" />
<text x="640.0" y="556.6" font-family="Inter, ui-sans-serif, system-ui, -apple-system, BlinkMacSystemFont, 'Segoe UI', sans-serif" font-size="11" fill="#64748b" text-anchor="end" font-weight="400" >0.4</text>
<line x1="650.0" y1="770.0" x2="1070.0" y2="770.0" stroke="#94a3b8" stroke-width="1.1" />
<line x1="650.0" y1="520.0" x2="650.0" y2="770.0" stroke="#94a3b8" stroke-width="1.1" />
<line x1="650.0" y1="558.0" x2="688.2" y2="703.7" stroke="#f87171" stroke-width="2.4" />
<line x1="688.2" y1="703.7" x2="726.4" y2="719.5" stroke="#f87171" stroke-width="2.4" />
<line x1="726.4" y1="719.5" x2="764.5" y2="755.9" stroke="#f87171" stroke-width="2.4" />
<line x1="764.5" y1="755.9" x2="802.7" y2="752.1" stroke="#f87171" stroke-width="2.4" />
<line x1="802.7" y1="752.1" x2="840.9" y2="757.0" stroke="#f87171" stroke-width="2.4" />
<line x1="840.9" y1="757.0" x2="879.1" y2="755.3" stroke="#f87171" stroke-width="2.4" />
<line x1="879.1" y1="755.3" x2="917.3" y2="751.0" stroke="#f87171" stroke-width="2.4" />
<line x1="917.3" y1="751.0" x2="955.5" y2="750.4" stroke="#f87171" stroke-width="2.4" />
<line x1="955.5" y1="750.4" x2="993.6" y2="736.3" stroke="#f87171" stroke-width="2.4" />
<line x1="993.6" y1="736.3" x2="1031.8" y2="729.8" stroke="#f87171" stroke-width="2.4" />
<line x1="1031.8" y1="729.8" x2="1070.0" y2="709.1" stroke="#f87171" stroke-width="2.4" />
<circle cx="650.0" cy="558.0" r="3.8" fill="#f87171" stroke="white" stroke-width="1.4" />
<circle cx="688.2" cy="703.7" r="3.8" fill="#f87171" stroke="white" stroke-width="1.4" />
<circle cx="726.4" cy="719.5" r="3.8" fill="#f87171" stroke="white" stroke-width="1.4" />
<circle cx="764.5" cy="755.9" r="3.8" fill="#f87171" stroke="white" stroke-width="1.4" />
<circle cx="802.7" cy="752.1" r="3.8" fill="#f87171" stroke="white" stroke-width="1.4" />
<circle cx="840.9" cy="757.0" r="3.8" fill="#f87171" stroke="white" stroke-width="1.4" />
<circle cx="879.1" cy="755.3" r="3.8" fill="#f87171" stroke="white" stroke-width="1.4" />
<circle cx="917.3" cy="751.0" r="3.8" fill="#f87171" stroke="white" stroke-width="1.4" />
<circle cx="955.5" cy="750.4" r="3.8" fill="#f87171" stroke="white" stroke-width="1.4" />
<circle cx="993.6" cy="736.3" r="3.8" fill="#f87171" stroke="white" stroke-width="1.4" />
<circle cx="1031.8" cy="729.8" r="3.8" fill="#f87171" stroke="white" stroke-width="1.4" />
<circle cx="1070.0" cy="709.1" r="3.8" fill="#f87171" stroke="white" stroke-width="1.4" />
<text x="1077.0" y="714.1" font-family="Inter, ui-sans-serif, system-ui, -apple-system, BlinkMacSystemFont, 'Segoe UI', sans-serif" font-size="10" fill="#f87171" text-anchor="start" font-weight="650" >LoRA / Alpaca</text>
<line x1="650.0" y1="535.2" x2="688.2" y2="667.8" stroke="#b91c1c" stroke-width="2.4" />
<line x1="688.2" y1="667.8" x2="726.4" y2="661.3" stroke="#b91c1c" stroke-width="2.4" />
<line x1="726.4" y1="661.3" x2="764.5" y2="662.4" stroke="#b91c1c" stroke-width="2.4" />
<line x1="764.5" y1="662.4" x2="802.7" y2="648.8" stroke="#b91c1c" stroke-width="2.4" />
<line x1="802.7" y1="648.8" x2="840.9" y2="646.1" stroke="#b91c1c" stroke-width="2.4" />
<line x1="840.9" y1="646.1" x2="879.1" y2="661.3" stroke="#b91c1c" stroke-width="2.4" />
<line x1="879.1" y1="661.3" x2="917.3" y2="630.3" stroke="#b91c1c" stroke-width="2.4" />
<line x1="917.3" y1="630.3" x2="955.5" y2="620.5" stroke="#b91c1c" stroke-width="2.4" />
<line x1="955.5" y1="620.5" x2="993.6" y2="640.7" stroke="#b91c1c" stroke-width="2.4" />
<line x1="993.6" y1="640.7" x2="1031.8" y2="627.6" stroke="#b91c1c" stroke-width="2.4" />
<line x1="1031.8" y1="627.6" x2="1070.0" y2="639.6" stroke="#b91c1c" stroke-width="2.4" />
<circle cx="650.0" cy="535.2" r="3.8" fill="#b91c1c" stroke="white" stroke-width="1.4" />
<circle cx="688.2" cy="667.8" r="3.8" fill="#b91c1c" stroke="white" stroke-width="1.4" />
<circle cx="726.4" cy="661.3" r="3.8" fill="#b91c1c" stroke="white" stroke-width="1.4" />
<circle cx="764.5" cy="662.4" r="3.8" fill="#b91c1c" stroke="white" stroke-width="1.4" />
<circle cx="802.7" cy="648.8" r="3.8" fill="#b91c1c" stroke="white" stroke-width="1.4" />
<circle cx="840.9" cy="646.1" r="3.8" fill="#b91c1c" stroke="white" stroke-width="1.4" />
<circle cx="879.1" cy="661.3" r="3.8" fill="#b91c1c" stroke="white" stroke-width="1.4" />
<circle cx="917.3" cy="630.3" r="3.8" fill="#b91c1c" stroke="white" stroke-width="1.4" />
<circle cx="955.5" cy="620.5" r="3.8" fill="#b91c1c" stroke="white" stroke-width="1.4" />
<circle cx="993.6" cy="640.7" r="3.8" fill="#b91c1c" stroke="white" stroke-width="1.4" />
<circle cx="1031.8" cy="627.6" r="3.8" fill="#b91c1c" stroke="white" stroke-width="1.4" />
<circle cx="1070.0" cy="639.6" r="3.8" fill="#b91c1c" stroke="white" stroke-width="1.4" />
<text x="1077.0" y="633.6" font-family="Inter, ui-sans-serif, system-ui, -apple-system, BlinkMacSystemFont, 'Segoe UI', sans-serif" font-size="10" fill="#b91c1c" text-anchor="start" font-weight="650" >our LoRA</text>
<text x="650.0" y="790.0" font-family="Inter, ui-sans-serif, system-ui, -apple-system, BlinkMacSystemFont, 'Segoe UI', sans-serif" font-size="10" fill="#64748b" text-anchor="middle" font-weight="600" >base</text>
<text x="802.7" y="790.0" font-family="Inter, ui-sans-serif, system-ui, -apple-system, BlinkMacSystemFont, 'Segoe UI', sans-serif" font-size="10" fill="#64748b" text-anchor="middle" font-weight="600" >installed</text>
<text x="840.9" y="790.0" font-family="Inter, ui-sans-serif, system-ui, -apple-system, BlinkMacSystemFont, 'Segoe UI', sans-serif" font-size="10" fill="#64748b" text-anchor="middle" font-weight="400" >32</text>
<text x="917.3" y="790.0" font-family="Inter, ui-sans-serif, system-ui, -apple-system, BlinkMacSystemFont, 'Segoe UI', sans-serif" font-size="10" fill="#64748b" text-anchor="middle" font-weight="400" >96</text>
<text x="1031.8" y="790.0" font-family="Inter, ui-sans-serif, system-ui, -apple-system, BlinkMacSystemFont, 'Segoe UI', sans-serif" font-size="10" fill="#64748b" text-anchor="middle" font-weight="400" >320</text>
<text x="1070.0" y="790.0" font-family="Inter, ui-sans-serif, system-ui, -apple-system, BlinkMacSystemFont, 'Segoe UI', sans-serif" font-size="10" fill="#64748b" text-anchor="middle" font-weight="400" >736</text>
<text x="860.0" y="812.0" font-family="Inter, ui-sans-serif, system-ui, -apple-system, BlinkMacSystemFont, 'Segoe UI', sans-serif" font-size="11" fill="#64748b" text-anchor="middle" font-weight="400" >continued Alpaca-training examples</text>
<text x="34.0" y="275.0" font-family="Inter, ui-sans-serif, system-ui, -apple-system, BlinkMacSystemFont, 'Segoe UI', sans-serif" font-size="12" fill="#334155" text-anchor="middle" font-weight="500" transform="rotate(-90 34 275)">AM</text>
<text x="34.0" y="645.0" font-family="Inter, ui-sans-serif, system-ui, -apple-system, BlinkMacSystemFont, 'Segoe UI', sans-serif" font-size="12" fill="#334155" text-anchor="middle" font-weight="500" transform="rotate(-90 34 645)">AM</text>
<line x1="94.0" y1="850.0" x2="122.0" y2="850.0" stroke="#f87171" stroke-width="2.5" />
<text x="132.0" y="854.0" font-family="Inter, ui-sans-serif, system-ui, -apple-system, BlinkMacSystemFont, 'Segoe UI', sans-serif" font-size="12" fill="#334155" text-anchor="start" font-weight="400" >baseline</text>
<line x1="224.0" y1="850.0" x2="252.0" y2="850.0" stroke="#b91c1c" stroke-width="2.5" />
<text x="262.0" y="854.0" font-family="Inter, ui-sans-serif, system-ui, -apple-system, BlinkMacSystemFont, 'Segoe UI', sans-serif" font-size="12" fill="#334155" text-anchor="start" font-weight="400" >condition under test</text>
<text x="54.0" y="888.0" font-family="Inter, ui-sans-serif, system-ui, -apple-system, BlinkMacSystemFont, 'Segoe UI', sans-serif" font-size="12" fill="#64748b" text-anchor="start" font-weight="400" >Source: June 18 washout visualization, site/src/routes/visualizations/2026-06-18/WashoutCurve.tsx.</text>
</svg>
